HIERARCHY
ROOT Hips
{
  OFFSET -4.35178 90.3298 111.633
  CHANNELS 6 Xposition Yposition Zposition Zrotation Xrotation Yrotation
  JOINT LeftUpLeg
  {
    OFFSET 0.103456 1.85784 10.5485
    CHANNELS 6 Xposition Yposition Zposition Zrotation Xrotation Yrotation
    JOINT LeftLeg
    {
      OFFSET 43.5 -4.2e-05 0
      CHANNELS 6 Xposition Yposition Zposition Zrotation Xrotation Yrotation
      JOINT LeftFoot
      {
        OFFSET 42.3722 1.9e-05 0
        CHANNELS 6 Xposition Yposition Zposition Zrotation Xrotation Yrotation
        JOINT LeftToe
        {
          OFFSET 17.3 0 0
          CHANNELS 6 Xposition Yposition Zposition Zrotation Xrotation Yrotation
          End Site
          {
            OFFSET 0 0 0
          }
        }
      }
    }
  }
  JOINT RightUpLeg
  {
    OFFSET 0.103456 1.85782 -10.5485
    CHANNELS 6 Xposition Yposition Zposition Zrotation Xrotation Yrotation
    JOINT RightLeg
    {
      OFFSET 43.5 -2.7e-05 0
      CHANNELS 6 Xposition Yposition Zposition Zrotation Xrotation Yrotation
      JOINT RightFoot
      {
        OFFSET 42.3723 0 0
        CHANNELS 6 Xposition Yposition Zposition Zrotation Xrotation Yrotation
        JOINT RightToe
        {
          OFFSET 17.3 0 1.7e-05
          CHANNELS 6 Xposition Yposition Zposition Zrotation Xrotation Yrotation
          End Site
          {
            OFFSET 0 0 0
          }
        }
      }
    }
  }
  JOINT Spine
  {
    OFFSET 6.90197 -2.60373 0
    CHANNELS 6 Xposition Yposition Zposition Zrotation Xrotation Yrotation
    JOINT Spine1
    {
      OFFSET 12.5881 0 0
      CHANNELS 6 Xposition Yposition Zposition Zrotation Xrotation Yrotation
      JOINT Spine2
      {
        OFFSET 12.3432 -1.8e-05 0
        CHANNELS 6 Xposition Yposition Zposition Zrotation Xrotation Yrotation
        JOINT Neck
        {
          OFFSET 25.8329 2.3e-05 0
          CHANNELS 6 Xposition Yposition Zposition Zrotation Xrotation Yrotation
          JOINT Head
          {
            OFFSET 11.7666 0 0
            CHANNELS 6 Xposition Yposition Zposition Zrotation Xrotation Yrotation
            End Site
            {
              OFFSET 0 0 0
            }
          }
        }
        JOINT LeftShoulder
        {
          OFFSET 19.7459 -1.48035 6.0001
          CHANNELS 6 Xposition Yposition Zposition Zrotation Xrotation Yrotation
          JOINT LeftArm
          {
            OFFSET 11.2841 1.8e-05 -2e-05
            CHANNELS 6 Xposition Yposition Zposition Zrotation Xrotation Yrotation
            JOINT LeftForeArm
            {
              OFFSET 33 -1.3e-05 1.9e-05
              CHANNELS 6 Xposition Yposition Zposition Zrotation Xrotation Yrotation
              JOINT LeftHand
              {
                OFFSET 25.2 3.2e-05 1.1e-05
                CHANNELS 6 Xposition Yposition Zposition Zrotation Xrotation Yrotation
                End Site
                {
                  OFFSET 0 0 0
                }
              }
            }
          }
        }
        JOINT RightShoulder
        {
          OFFSET 19.7461 -1.48036 -6.00008
          CHANNELS 6 Xposition Yposition Zposition Zrotation Xrotation Yrotation
          JOINT RightArm
          {
            OFFSET 11.2841 0 0
            CHANNELS 6 Xposition Yposition Zposition Zrotation Xrotation Yrotation
            JOINT RightForeArm
            {
              OFFSET 33.0001 1.6e-05 0
              CHANNELS 6 Xposition Yposition Zposition Zrotation Xrotation Yrotation
              JOINT RightHand
              {
                OFFSET 25.1998 0.000123 0.000432
                CHANNELS 6 Xposition Yposition Zposition Zrotation Xrotation Yrotation
                End Site
                {
                  OFFSET 0 0 0
                }
              }
            }
          }
        }
      }
    }
  }
}
MOTION
Frames:	6
Frame Time:	0.0333333
-5.34468 89.8032 -109.341 -48.0146 -83.168 -134.871 0.103456 1.85784 10.5485 5.39687 9.92569 -179.994 43.5 -4.2e-05 1e-05 -14.3263 -8.96472 -2.5782 42.3722 1.9e-05 7.10543e-15 78.0435 1.94225 -1.26348 17.3 7.10543e-15 3e-06 21.4546 -1e-06 0.003093 0.103456 1.85782 -10.5485 9.5211 2.49597 172.618 43.5 -2.7e-05 4e-06 -8.63031 10.7039 2.54053 42.3723 0 1e-05 85.4926 17.8197 -11.9989 17.3 -6e-06 1.7e-05 21.4546 -1.9e-05 -0.003116 6.90197 -2.60373 -3e-06 7.48851 0.818784 0.531318 12.5881 1e-05 8e-06 4.93447 1.7733 0.946338 12.3432 -1.8e-05 -5e-06 4.58706 1.9008 0.84056 25.8329 2.3e-05 7e-06 2.84409 -1.857 -1.4055 11.7666 -8e-06 -6e-06 -26.8449 -10.428 10.0023 19.7459 -1.48035 6.0001 174.038 -9.50302 -103.851 11.2841 1.8e-05 -2e-05 7.69042 -29.4839 39.8371 33 -1.3e-05 1.9e-05 -13.0496 7.64528 -17.7331 25.2 3.2e-05 1.1e-05 1.57774 28.8643 2.91356 19.7461 -1.48036 -6.00008 -170.211 -6.79233 79.1994 11.2841 7.10543e-15 -1e-06 26.4872 3.49052 -0.937647 33.0001 1.6e-05 -1e-06 -42.1739 9.66293 22.4556 25.1998 0.000123 0.000432 20.2385 -10.198 7.41636 
-5.34521 89.8036 -109.339 -48.0554 -83.1842 -134.91 0.103456 1.85784 10.5485 5.39687 9.92569 -179.994 43.5 -4.2e-05 1e-05 -14.32 -8.96472 -2.5782 42.3722 1.9e-05 -3.55271e-15 78.0319 1.94224 -1.27086 17.3 0 3e-06 21.4546 -1e-06 0.003093 0.103456 1.85782 -10.5485 9.52302 2.51081 172.618 43.5 -2.7e-05 4e-06 -8.63135 10.7039 2.54053 42.3723 0 1e-05 85.4755 17.8639 -12.0173 17.3 -6e-06 1.7e-05 21.4546 -1.9e-05 -0.003116 6.90197 -2.60373 -3e-06 7.49538 0.818784 0.531318 12.5881 1e-05 8e-06 4.94849 1.7733 0.946338 12.3432 -1.8e-05 -5e-06 4.60102 1.9008 0.846278 25.8329 2.3e-05 7e-06 2.84409 -1.857 -1.4055 11.7666 -8e-06 -6e-06 -26.8449 -10.428 10.0023 19.7459 -1.48035 6.0001 174.027 -9.48807 -103.861 11.2841 1.8e-05 -2e-05 7.70659 -29.502 39.8398 33 -1.3e-05 1.9e-05 -13.0467 7.57304 -17.7325 25.2 3.2e-05 1.1e-05 1.69115 28.8418 2.91293 19.7461 -1.48036 -6.00008 -170.198 -6.79791 79.2029 11.2841 7.10543e-15 -1e-06 26.4837 3.47167 -0.937628 33.0001 1.6e-05 -1e-06 -42.1656 9.65244 22.4549 25.1998 0.000123 0.000432 20.2 -10.198 7.41636 
-5.34686 89.8039 -109.338 -48.0624 -83.2067 -134.909 0.103456 1.85784 10.5485 5.39272 9.92569 -179.994 43.5 -4.2e-05 1e-05 -14.3074 -8.96472 -2.5782 42.3722 1.9e-05 -3.55271e-15 78.016 1.94224 -1.28094 17.3 -7.10543e-15 3e-06 21.4546 -1e-06 0.003093 0.103456 1.85782 -10.5485 9.52127 2.52446 172.618 43.5 -2.7e-05 4e-06 -8.60907 10.7039 2.54053 42.3723 1.42109e-14 1e-05 85.449 17.8914 -12.027 17.3 -6e-06 1.7e-05 21.4546 -1.9e-05 -0.003116 6.90197 -2.60373 -3e-06 7.50151 0.818784 0.531318 12.5881 1e-05 8e-06 4.96054 1.7733 0.949836 12.3432 -1.8e-05 -5e-06 4.61312 1.9008 0.850101 25.8329 2.3e-05 7e-06 2.84409 -1.857 -1.4055 11.7666 -8e-06 -6e-06 -26.8363 -10.428 10.0023 19.7459 -1.48035 6.0001 174.026 -9.49762 -103.84 11.2841 1.8e-05 -2e-05 7.63556 -29.4847 39.7865 33 -1.3e-05 1.9e-05 -13.0642 7.58749 -17.7143 25.2 3.2e-05 1.1e-05 1.72149 28.85 2.92891 19.7461 -1.48036 -6.00008 -170.199 -6.78654 79.1958 11.2841 2.13163e-14 -1e-06 26.4473 3.44739 -0.92982 33.0001 1.6e-05 -1e-06 -42.1347 9.63816 22.4485 25.1998 0.000123 0.000432 20.1667 -10.2113 7.4165 
-5.34825 89.8043 -109.337 -48.069 -83.227 -134.907 0.103456 1.85784 10.5485 5.36869 9.92569 -179.994 43.5 -4.2e-05 1e-05 -14.3097 -8.96472 -2.5782 42.3722 1.9e-05 3.55271e-15 78.0116 1.95517 -1.28456 17.3 0 3e-06 21.4546 -1e-06 0.003093 0.103456 1.85782 -10.5485 9.51583 2.53546 172.618 43.5 -2.7e-05 4e-06 -8.60102 10.706 2.54055 42.3723 1.42109e-14 1e-05 85.4279 17.94 -12.0363 17.3 -6e-06 1.7e-05 21.4546 -1.9e-05 -0.003116 6.90197 -2.60373 -3e-06 7.50635 0.818784 0.531318 12.5881 1e-05 8e-06 4.97009 1.77375 0.953402 12.3432 -1.8e-05 -5e-06 4.62267 1.90169 0.853691 25.8329 2.3e-05 7e-06 2.84406 -1.85847 -1.4055 11.7666 -8e-06 -6e-06 -26.8227 -10.429 10.0023 19.7459 -1.48035 6.0001 174.031 -9.49302 -103.829 11.2841 1.8e-05 -2e-05 7.57632 -29.4806 39.7375 33 -1.3e-05 1.9e-05 -13.1066 7.62388 -17.7125 25.2 3.2e-05 1.1e-05 1.70324 28.8755 2.92027 19.7461 -1.48036 -6.00008 -170.198 -6.78517 79.1949 11.2841 -2.13163e-14 -1e-06 26.4401 3.43571 -0.922995 33.0001 1.6e-05 -1e-06 -42.1252 9.65687 22.4173 25.1998 0.000123 0.000432 20.0405 -10.2026 7.37872 
-5.34952 89.805 -109.322 -48.1448 -83.2416 -134.975 0.103456 1.85784 10.5485 5.36642 9.9301 -179.994 43.5 -4.2e-05 1e-05 -14.2893 -8.96472 -2.5782 42.3722 1.9e-05 0 77.9899 1.94656 -1.29023 17.3 0 3e-06 21.4546 -1e-06 0.003093 0.103456 1.85782 -10.5485 9.50324 2.54627 172.618 43.5 -2.7e-05 4e-06 -8.60941 10.7122 2.5406 42.3723 0 1e-05 85.4503 17.9478 -12.048 17.3 -6e-06 1.7e-05 21.4546 -1.9e-05 -0.003116 6.90197 -2.60373 -3e-06 7.51583 0.818784 0.531318 12.5881 1e-05 8e-06 4.98899 1.77369 0.956487 12.3432 -1.8e-05 -5e-06 4.64155 1.90204 0.856754 25.8329 2.3e-05 7e-06 2.84422 -1.84752 -1.40884 11.7666 -8e-06 -6e-06 -26.8285 -10.4191 10.001 19.7459 -1.48035 6.0001 174.042 -9.48904 -103.815 11.2841 1.8e-05 -2e-05 7.51668 -29.4507 39.6602 33 -1.3e-05 1.9e-05 -13.1459 7.62918 -17.7097 25.2 3.2e-05 1.1e-05 1.61981 28.8892 2.89013 19.7461 -1.48036 -6.00008 -170.207 -6.78146 79.1946 11.2841 7.10543e-15 -1e-06 26.4523 3.46558 -0.959796 33.0001 1.6e-05 -1e-06 -42.1466 9.66909 22.4138 25.1998 0.000123 0.000432 20.0806 -10.1914 7.36947 
-5.35078 89.8054 -109.309 -48.2297 -83.2506 -135.05 0.103456 1.85784 10.5485 5.36139 9.93932 -179.994 43.5 -4.2e-05 1e-05 -14.2613 -8.96709 -2.57822 42.3722 1.9e-05 3.55271e-15 77.9985 1.91313 -1.31274 17.3 7.10543e-15 3e-06 21.4546 -1e-06 0.003093 0.103456 1.85782 -10.5485 9.47443 2.55753 172.613 43.5 -2.7e-05 4e-06 -8.62944 10.715 2.54062 42.3723 1.42109e-14 1e-05 85.4633 17.9474 -12.0507 17.3 -6e-06 1.7e-05 21.4546 -1.9e-05 -0.003116 6.90197 -2.60373 -3e-06 7.52328 0.817701 0.531317 12.5881 1e-05 8e-06 5.00389 1.77185 0.958059 12.3432 -1.8e-05 -5e-06 4.65645 1.90052 0.858468 25.8329 2.3e-05 7e-06 2.84401 -1.83806 -1.4226 11.7666 -8e-06 -6e-06 -26.8151 -10.3784 9.98219 19.7459 -1.48035 6.0001 174.056 -9.48295 -103.774 11.2841 1.8e-05 -2e-05 7.53589 -29.4325 39.6381 33 -1.3e-05 1.9e-05 -13.2375 7.64817 -17.7164 25.2 3.2e-05 1.1e-05 1.51528 28.9029 2.86387 19.7461 -1.48036 -6.00008 -170.24 -6.78128 79.2015 11.2841 7.10543e-15 -1e-06 26.3926 3.45853 -0.948682 33.0001 1.6e-05 -1e-06 -42.1114 9.63634 22.4226 25.1998 0.000123 0.000432 20.1619 -10.2174 7.38684 
